<?xml version="1.0" standalone="no"?>
<!DOCTYPE svg PUBLIC "-//W3C//DTD SVG 20010904//EN"
 "http://www.w3.org/TR/2001/REC-SVG-20010904/DTD/svg10.dtd">
<svg version="1.0" xmlns="http://www.w3.org/2000/svg"
 width="512.000000pt" height="512.000000pt" viewBox="0 0 512.000000 512.000000"
 preserveAspectRatio="xMidYMid meet">

<g transform="translate(0.000000,512.000000) scale(0.100000,-0.100000)"
fill="#000000" stroke="none">
<path d="M2395 4240 c-210 -33 -427 -143 -579 -296 -409 -408 -406 -1068 7
-1475 96 -95 179 -149 226 -149 l36 0 0 -240 0 -240 -62 0 c-59 0 -63 2 -69
26 -11 44 3 132 25 160 18 23 21 41 21 136 0 101 -2 111 -24 133 -30 30 -117
42 -200 27 -92 -17 -225 -89 -380 -206 -77 -58 -161 -116 -187 -130 -44 -25
-49 -25 -88 -11 -22 7 -68 17 -101 21 l-60 7 0 254 0 254 -25 24 -24 25 -351
0 -351 0 -24 -25 -25 -24 0 -351 0 -351 25 -24 c23 -24 28 -25 170 -25 l146 0
-26 -43 c-124 -212 -87 -494 88 -669 112 -112 235 -163 397 -163 142 0 239 33
344 116 l49 39 1012 0 1012 0 39 -31 c80 -63 191 -106 300 -116 188 -16 376
71 500 231 l30 39 -4 -36 c-3 -28 1 -41 22 -61 l25 -26 311 0 311 0 24 25 c26
25 32 63 15 94 -5 10 -54 45 -110 77 -55 33 -100 61 -100 64 0 3 43 21 95 39
102 36 125 55 125 105 0 97 -422 329 -890 490 -193 67 -441 120 -640 138 -121
11 -139 15 -170 39 -50 38 -92 49 -190 49 l-88 0 20 80 20 80 220 0 c132 0
227 4 239 10 26 15 74 112 103 213 36 124 50 267 43 452 -15 417 -127 720
-349 947 -132 134 -302 233 -478 278 -97 24 -308 35 -405 20z m390 -185 c173
-50 319 -147 430 -284 57 -71 145 -215 145 -238 0 -10 -116 -13 -574 -13 -532
0 -575 -1 -595 -17 -31 -25 -41 -79 -41 -228 0 -308 83 -444 298 -490 148 -31
623 -65 914 -65 l97 0 -6 -37 c-3 -21 -17 -74 -32 -118 l-26 -80 -668 -3 -669
-2 -66 52 c-131 105 -246 286 -293 463 -31 113 -31 316 0 430 63 241 225 444
442 559 201 106 433 132 644 71z m383 -780 c29 -104 52 -244 52 -324 l0 -64
-182 7 c-290 11 -552 41 -624 71 -64 26 -104 144 -104 308 l0 87 418 -2 417
-3 23 -80z m261 33 c18 -88 30 -187 37 -310 l7 -118 -40 0 -40 0 -7 105 c-6
89 -39 277 -62 353 -6 21 -4 22 44 22 l51 0 10 -52z m-1076 -999 c29 -13 47
-48 47 -92 1 -67 61 -155 134 -195 27 -15 72 -18 321 -22 160 -3 297 -9 307
-13 9 -5 22 -22 28 -38 16 -37 -1 -82 -36 -98 -35 -15 -833 -16 -867 0 -41 19
-47 49 -47 229 0 177 6 210 44 228 28 14 40 14 69 1z m497 4 c0 -5 -7 -41 -17
-80 l-17 -73 -90 0 c-130 0 -157 19 -169 118 l-5 42 149 0 c82 0 149 -3 149
-7z m965 -808 c52 -51 12 -135 -65 -135 -32 0 -70 44 -70 80 0 41 39 80 80 80
19 0 40 -9 55 -25z m-2800 -10 c52 -51 12 -135 -65 -135 -32 0 -70 44 -70 80
0 19 9 40 25 55 15 16 36 25 55 25 19 0 40 -9 55 -25z"/>
<path d="M2902 3257 c-19 -20 -22 -35 -22 -98 0 -66 3 -78 23 -97 32 -30 87
-29 115 1 19 20 22 35 22 98 0 66 -3 78 -23 97 -32 30 -87 29 -115 -1z"/>
</g>
</svg>
